# xmcd
#
# Track frame offsets:
#       150
#       15424
#       30765
#       50960
#       71558
#       86747
#       105612
#       124178
#       131166
#       147271
#       164791
#       183300
#       199087
#       220440
#
# Disc length: 3144 seconds
#
# Revision: 0
# Processed by: cddbd v1.5.2PL0 Copyright (c) Steve Scherf et al.
# Submitted via: WaveLab 6.11
#
DISCID=d10c460e
DTITLE=The Ragtown Brothers - The Ragtown Brothers (Instrumental Version)
DYEAR=2015
DGENRE=Pop
TTITLE0=01-Shanona (Instrumental)
TTITLE1=02-Cry For Rain (Instrumental)
TTITLE2=03-Soldier of the Line (Instrumental)
TTITLE3=04-Magic Hat (Instrumental)
TTITLE4=05-Over My Head (Instrumental)
TTITLE5=06-The Good Life (Instrumental)
TTITLE6=07-Ragtown Rag (Instrumental)
TTITLE7=08-Hope (Instrumental)
TTITLE8=09-Suffolk on a Sunday (Instrumental)
TTITLE9=10-Lady and I (Instrumental)
TTITLE10=11-Just Passing Through (Instrumental)
TTITLE11=12-Cry For Rain (Original 2007 Demo) (Instrumental)
TTITLE12=13-Magic Hat (Original 2009 Demo) (Instrumental)
TTITLE13=14-Suffolk on a Sunday (Original 2009 Demo) (Instrumental)
EXTD=
EXTT0=
EXTT1=
EXTT2=
EXTT3=
EXTT4=
EXTT5=
EXTT6=
EXTT7=
EXTT8=
EXTT9=
EXTT10=
EXTT11=
EXTT12=
EXTT13=
PLAYORDER=
